#!OML:ASF I:\golf\golf\golf 2\Subject 1\2002-09-07\Subject1.ASF
:FULLY-SPECIFIED
:DEGREES
324
root 1.40343 16.2114 -4.26801 56.1071 7.91006 3.20643
lowerback 34.5922 8.85966 3.6669
upperback 17.8145 11.7834 8.63139
thorax 1.08493 5.39006 3.61064
lowerneck -6.66197 -11.0501 0.176601
upperneck -8.88391 -16.2484 -10.6642
head -2.80422 -8.0749 -3.38566
rclavicle -1.17681e-013 -2.8625e-014
rhumerus 59.1238 -19.7485 -42.0723
rradius 25.062
rwrist 3.78399
rhand -45.4877 26.2572
rfingers 7.12502
rthumb -18.2529 -2.90642
lclavicle -1.17681e-013 -2.8625e-014
lhumerus 1.15208 -64.8973 63.1131
lradius 88.3669
lwrist -30.7172
lhand -56.8512 30.2437
lfingers 7.12502
lthumb -29.1494 57.9817
rfemur -91.8193 -22.6579 29.2338
rtibia 59.6003
rfoot -15.1212 -9.19709
rtoes -19.6958
lfemur -95.4925 0.285394 -25.3037
ltibia 52.3511
lfoot -8.59878 -19.7225
ltoes 0.615004
325
root 1.40797 16.2169 -4.26195 56.1121 7.88111 3.19011
lowerback 34.5397 8.90229 3.65278
upperback 17.8288 11.8281 8.67197
thorax 1.10451 5.40897 3.65127
lowerneck -6.56087 -11.0411 0.192101
upperneck -9.02812 -16.2613 -10.665
head -2.87435 -8.07346 -3.37768
rclavicle 2.8625e-014 6.36111e-014
rhumerus 59.0846 -19.8023 -42.0283
rradius 25.0382
rwrist 3.93058
rhand -45.5174 25.9542
rfingers 7.12502
rthumb -18.2814 -3.20676
lclavicle 2.8625e-014 6.36111e-014
lhumerus 1.36599 -64.9744 62.9579
lradius 88.3694
lwrist -30.708
lhand -56.4124 30.3678
lfingers 7.12502
lthumb -28.7303 58.1776
rfemur -91.7477 -22.637 29.2012
rtibia 59.5113
rfoot -15.1238 -9.19349
rtoes -19.5859
lfemur -95.4629 0.277087 -25.2673
ltibia 52.3307
lfoot -8.5713 -19.6633
ltoes 0.693211
326
root 1.41375 16.2257 -4.25638 56.1133 7.83973 3.18035
lowerback 34.4947 8.92564 3.64412
upperback 17.8373 11.8511 8.68944
thorax 1.12264 5.41902 3.67139
lowerneck -6.56942 -11.0101 0.401409
upperneck -9.10029 -16.2663 -10.8965
head -2.94324 -8.07581 -3.48914
rclavicle 1.08139e-013 0
rhumerus 59.1065 -19.8512 -42.1375
rradius 24.9952
rwrist 4.22236
rhand -45.4932 25.6538
rfingers 7.12502
rthumb -18.2582 -3.50932
lclavicle 1.08139e-013 0
lhumerus 1.53959 -65.0379 62.8275
lradius 88.3094
lwrist -30.7053
lhand -56.2651 30.2263
lfingers 7.12502
lthumb -28.5896 58.0599
rfemur -91.6621 -22.6134 29.1427
rtibia 59.4193
rfoot -15.1011 -9.26677
rtoes -20.1367
lfemur -95.424 0.273655 -25.2907
ltibia 52.3194
lfoot -8.61138 -19.6049
ltoes 0.417593
327
root 1.41966 16.2301 -4.25045 56.1139 7.81178 3.16802
lowerback 34.4942 8.92805 3.65161
upperback 17.8134 11.8579 8.69653
thorax 1.09596 5.42177 3.67015
lowerneck -6.64957 -11.0095 0.59139
upperneck -9.0105 -16.2918 -11.1689
head -2.94771 -8.09471 -3.62018
rclavicle 1.59028e-014 -3.18055e-014
rhumerus 59.1231 -19.8437 -42.2612
rradius 24.9425
rwrist 4.52553
rhand -45.4271 25.3663
rfingers 7.12502
rthumb -18.1946 -3.8027
lclavicle 1.59028e-014 -3.18055e-014
lhumerus 1.57656 -65.0998 62.8283
lradius 88.2558
lwrist -30.6915
lhand -56.3622 30.0667
lfingers 7.12502
lthumb -28.6823 57.8846
rfemur -91.5801 -22.6005 29.084
rtibia 59.3388
rfoot -15.0751 -9.27901
rtoes -20.2266
lfemur -95.3994 0.267331 -25.2923
ltibia 52.3225
lfoot -8.6842 -19.5749
ltoes 0.336892
328
root 1.42471 16.2318 -4.24546 56.1085 7.79743 3.14849
lowerback 34.5221 8.93023 3.68369
upperback 17.7779 11.8732 8.70998
thorax 1.04956 5.42889 3.65684
lowerneck -6.62628 -11.014 0.518687
upperneck -8.99506 -16.289 -11.1466
head -2.93698 -8.09075 -3.5994
rclavicle -1.11319e-013 1.74931e-014
rhumerus 59.0772 -19.8161 -42.2516
rradius 24.9218
rwrist 4.61036
rhand -45.3022 25.1737
rfingers 7.12502
rthumb -18.0744 -4.00653
lclavicle -1.11319e-013 1.74931e-014
lhumerus 1.50994 -65.1318 62.9456
lradius 88.2307
lwrist -30.7311
lhand -56.4913 30.3051
lfingers 7.12502
lthumb -28.8056 58.1021
rfemur -91.5098 -22.5954 29.0544
rtibia 59.2699
rfoot -15.0277 -9.25783
rtoes -20.0383
lfemur -95.3812 0.260411 -25.2641
ltibia 52.3301
lfoot -8.68634 -19.525
ltoes 0.304966
329
root 1.42945 16.2356 -4.24171 56.0974 7.74867 3.15809
lowerback 34.529 8.9693 3.63165
upperback 17.7573 11.91 8.75112
thorax 1.00272 5.44069 3.70834
lowerneck -6.48992 -11.0374 0.489461
upperneck -9.06603 -16.3335 -11.1305
head -2.98454 -8.10444 -3.57667
rclavicle -1.7175e-013 5.56597e-014
rhumerus 59.0127 -19.7758 -42.1467
rradius 24.9175
rwrist 4.52855
rhand -45.1063 25.0115
rfingers 7.12502
rthumb -17.886 -4.18604
lclavicle -1.7175e-013 5.56597e-014
lhumerus 1.49577 -65.1798 63.027
lradius 88.2361
lwrist -30.7623
lhand -56.5279 30.3703
lfingers 7.12502
lthumb -28.8406 58.1613
rfemur -91.4358 -22.5903 28.9674
rtibia 59.2045
rfoot -15.0145 -9.27329
rtoes -19.961
lfemur -95.3407 0.249498 -25.2969
ltibia 52.3271
lfoot -8.61431 -19.4888
ltoes 0.268516
330
root 1.43482 16.2405 -4.23803 56.0936 7.69925 3.16708
lowerback 34.4257 8.96917 3.53743
upperback 17.8249 11.8785 8.80068
thorax 1.08394 5.41987 3.83059
lowerneck -9.70614 -11.1697 -7.08165
upperneck -2.08349 -14.3915 -2.97681
head 1.20505 -7.30747 -0.382424
rclavicle 5.725e-014 0
rhumerus 59.1727 -19.7058 -42.1334
rradius 24.8835
rwrist 4.51182
rhand -44.9682 24.8857
rfingers 7.12502
rthumb -17.7531 -4.32389
lclavicle 5.725e-014 0
lhumerus 1.58734 -65.0817 62.9896
lradius 88.1929
lwrist -30.7677
lhand -56.3631 30.1253
lfingers 7.12502
lthumb -28.6832 57.9431
rfemur -91.3715 -22.5924 28.895
rtibia 59.1316
rfoot -15.0128 -9.27138
rtoes -20.0309
lfemur -95.3034 0.239307 -25.347
ltibia 52.3066
lfoot -8.54398 -19.481
ltoes 0.453686
331
root 1.43954 16.244 -4.23334 56.122 7.66995 3.16391
lowerback 34.2947 9.00426 3.53046
upperback 17.8683 11.9113 8.84883
thorax 1.16274 5.43486 3.89046
lowerneck -9.97258 -11.1845 -6.86943
upperneck -2.00381 -14.4102 -3.25225
head 1.23879 -7.32812 -0.515296
rclavicle -8.5875e-014 -4.6118e-014
rhumerus 59.1427 -19.7592 -41.9902
rradius 24.8706
rwrist 4.55345
rhand -44.8774 24.7369
rfingers 7.12502
rthumb -17.6657 -4.48057
lclavicle -8.5875e-014 -4.6118e-014
lhumerus 1.90326 -65.1423 62.7846
lradius 88.1179
lwrist -30.7819
lhand -56.3683 30.0884
lfingers 7.12502
lthumb -28.6881 57.9054
rfemur -91.3604 -22.6063 28.8996
rtibia 59.0539
rfoot -15.0122 -9.20198
rtoes -20.1076
lfemur -95.2954 0.222922 -25.3542
ltibia 52.2717
lfoot -8.58341 -19.4291
ltoes 0.350934
332
root 1.44347 16.2469 -4.2287 56.1654 7.65288 3.16168
lowerback 34.2077 9.03862 3.53382
upperback 17.8654 11.9513 8.8818
thorax 1.1807 5.45353 3.91829
lowerneck -9.9697 -11.1897 -6.70724
upperneck -2.13151 -14.4487 -3.4073
head 1.17178 -7.3485 -0.580003
rclavicle -6.99722e-014 3.81667e-014
rhumerus 59.0513 -19.7822 -41.8565
rradius 24.8708
rwrist 4.56781
rhand -44.7117 24.5703
rfingers 7.12502
rthumb -17.5062 -4.6615
lclavicle -6.99722e-014 3.81667e-014
lhumerus 2.16122 -65.2383 62.6029
lradius 88.1784
lwrist -30.7414
lhand -56.433 30.1372
lfingers 7.12502
lthumb -28.75 57.9437
rfemur -91.3708 -22.6177 28.9218
rtibia 58.9776
rfoot -15.0428 -9.14369
rtoes -20.2701
lfemur -95.3051 0.201296 -25.3533
ltibia 52.2305
lfoot -8.78318 -19.3983
ltoes -0.252032
333
root 1.44774 16.2504 -4.22554 56.1786 7.62544 3.15722
lowerback 34.1787 9.05751 3.51483
upperback 17.8343 11.9712 8.89136
thorax 1.14947 5.46152 3.93012
lowerneck -10.002 -11.1861 -6.67404
upperneck -1.93816 -14.4297 -3.47504
head 1.23331 -7.34426 -0.614424
rclavicle 9.54166e-014 -8.74653e-014
rhumerus 58.9791 -19.7467 -41.8187
rradius 24.8774
rwrist 4.59871
rhand -44.4432 24.3097
rfingers 7.12502
rthumb -17.2478 -4.94493
lclavicle 9.54166e-014 -8.74653e-014
lhumerus 2.26263 -65.3539 62.4922
lradius 88.2825
lwrist -30.626
lhand -56.2743 30.2959
lfingers 7.12502
lthumb -28.5984 58.128
rfemur -91.3445 -22.6233 28.9236
rtibia 58.9061
rfoot -15.0271 -9.1706
rtoes -20.8477
lfemur -95.2994 0.188406 -25.3811
ltibia 52.1895
lfoot -9.00951 -19.3959
ltoes -0.813131
334
root 1.45274 16.254 -4.22347 56.1699 7.58931 3.1556
lowerback 34.1263 9.08179 3.50146
upperback 17.8431 11.9944 8.91055
thorax 1.16898 5.47173 3.95503
lowerneck -10.1764 -11.1968 -7.25978
upperneck -1.39171 -14.3135 -2.87475
head 1.53708 -7.2862 -0.382847
rclavicle 6.04305e-014 -2.54444e-014
rhumerus 58.99 -19.8049 -41.8742
rradius 24.8383
rwrist 4.87469
rhand -44.2572 23.9143
rfingers 7.12502
rthumb -17.0687 -5.35589
lclavicle 6.04305e-014 -2.54444e-014
lhumerus 2.54573 -65.4659 62.2867
lradius 88.26
lwrist -30.4621
lhand -56.1736 30.4149
lfingers 7.12502
lthumb -28.5021 58.2632
rfemur -91.2965 -22.6447 28.9125
rtibia 58.8376
rfoot -14.9612 -9.14011
rtoes -20.9118
lfemur -95.2704 0.172632 -25.4102
ltibia 52.1575
lfoot -9.10063 -19.3372
ltoes -0.922433
335
root 1.4572 16.2565 -4.22167 56.1814 7.54713 3.18329
lowerback 34.0705 9.09749 3.48291
upperback 17.8594 12.0054 8.92812
thorax 1.19795 5.4761 3.98576
lowerneck -9.91327 -11.297 -6.46998
upperneck -1.96633 -14.6177 -3.65361
head 1.18055 -7.44112 -0.697836
rclavicle -2.8625e-014 -8.11041e-014
rhumerus 59.0338 -19.867 -41.9293
rradius 24.7703
rwrist 5.25275
rhand -44.2213 23.4775
rfingers 7.12502
rthumb -17.0342 -5.79567
lclavicle -2.8625e-014 -8.11041e-014
lhumerus 2.79997 -65.5281 62.1466
lradius 88.2108
lwrist -30.2729
lhand -56.318 30.3227
lfingers 7.12502
lthumb -28.6401 58.1478
rfemur -91.2806 -22.6783 28.8718
rtibia 58.7784
rfoot -14.8877 -9.08831
rtoes -20.5886
lfemur -95.2465 0.138007 -25.4521
ltibia 52.1336
lfoot -9.0754 -19.2563
ltoes -0.980198
336
root 1.46015 16.2579 -4.2197 56.1997 7.50747 3.21777
lowerback 34.0613 9.09899 3.4498
upperback 17.8628 11.9983 8.93351
thorax 1.19736 5.47071 4.01037
lowerneck -9.90054 -11.3108 -6.16816
upperneck -2.16732 -14.6941 -4.03029
head 1.05979 -7.48256 -0.844428
rclavicle 4.45278e-014 -4.92986e-014
rhumerus 59.0461 -19.8574 -41.8762
rradius 24.751
rwrist 5.38001
rhand -44.2573 23.064
rfingers 7.12502
rthumb -17.0688 -6.20614
lclavicle 4.45278e-014 -4.92986e-014
lhumerus 2.89397 -65.5177 62.0791
lradius 88.2098
lwrist -30.1269
lhand -56.2719 30.2396
lfingers 7.12502
lthumb -28.5961 58.0721
rfemur -91.2707 -22.6975 28.8176
rtibia 58.7294
rfoot -14.8551 -9.1018
rtoes -20.5779
lfemur -95.2213 0.105185 -25.4827
ltibia 52.1121
lfoot -8.86097 -19.2119
ltoes -1.07259
337
root 1.463 16.2596 -4.21836 56.2041 7.49203 3.23699
lowerback 34.0645 9.11113 3.44788
upperback 17.8607 12.0139 8.96251
thorax 1.18573 5.47633 4.03502
lowerneck -9.94892 -11.2358 -6.40048
upperneck -2.23373 -14.563 -3.83091
head 1.07858 -7.4119 -0.747359
rclavicle 3.18055e-014 -2.22639e-014
rhumerus 58.9998 -19.8729 -41.7912
rradius 24.7785
rwrist 5.39927
rhand -44.1746 22.637
rfingers 7.12502
rthumb -16.9893 -6.64002
lclavicle 3.18055e-014 -2.22639e-014
lhumerus 3.0538 -65.5207 61.9738
lradius 88.1854
lwrist -30.038
lhand -56.0874 29.9874
lfingers 7.12502
lthumb -28.4198 57.8495
rfemur -91.25 -22.7299 28.8108
rtibia 58.6843
rfoot -14.8747 -9.0701
rtoes -20.6483
lfemur -95.1911 0.0759153 -25.5106
ltibia 52.082
lfoot -8.7022 -19.1889
ltoes -1.21495
338
root 1.46541 16.261 -4.21812 56.205 7.48158 3.254
lowerback 34.0638 9.1198 3.48273
upperback 17.842 12.0362 8.9932
thorax 1.1637 5.48718 4.04033
lowerneck -9.90249 -11.2374 -6.65879
upperneck -2.2628 -14.5381 -3.54321
head 1.10298 -7.39261 -0.620903
rclavicle 4.45278e-014 -1.90833e-014
rhumerus 59.0053 -19.9671 -41.9816
rradius 24.772
rwrist 5.77304
rhand -43.8038 22.1324
rfingers 7.12502
rthumb -16.6324 -7.17492
lclavicle 4.45278e-014 -1.90833e-014
lhumerus 3.17699 -65.5543 61.9679
lradius 88.111
lwrist -30.036
lhand -56.0559 29.7144
lfingers 7.12502
lthumb -28.3897 57.5814
rfemur -91.2274 -22.7463 28.7849
rtibia 58.6451
rfoot -14.8893 -9.02259
rtoes -20.5517
lfemur -95.1707 0.0505175 -25.548
ltibia 52.0319
lfoot -8.86594 -19.1822
ltoes -1.54746
